HIERARCHY
ROOT Hips
{
	OFFSET -14.64140 90.27770 -84.91600
	CHANNELS 6 Xposition Yposition Zposition Zrotation Xrotation Yrotation
	JOINT Spine
	{
		OFFSET 0.00000 13.20850 -1.60436
		CHANNELS 3 Zrotation Xrotation Yrotation
		JOINT Spine1
		{
			OFFSET 0.00000 8.61716 0.00000
			CHANNELS 3 Zrotation Xrotation Yrotation
			JOINT Spine2
			{
				OFFSET 0.00000 8.61717 0.00000
				CHANNELS 3 Zrotation Xrotation Yrotation
				JOINT Spine3
				{
					OFFSET 0.00000 8.61717 0.00000
					CHANNELS 3 Zrotation Xrotation Yrotation
					JOINT Neck
					{
						OFFSET 0.00000 11.07920 1.10792
						CHANNELS 3 Zrotation Xrotation Yrotation
						JOINT Neck1
						{
							OFFSET 0.00000 7.08032 0.00000
							CHANNELS 3 Zrotation Xrotation Yrotation
							JOINT Head
							{
								OFFSET 0.00000 7.08031 0.00000
								CHANNELS 3 Zrotation Xrotation Yrotation
								End site
								{
									OFFSET 0.00000 0.00000 0.00000
								}
							}
						}
					}
					JOINT RightShoulder
					{
						OFFSET -0.01000 7.91373 5.19711
						CHANNELS 3 Zrotation Xrotation Yrotation
						JOINT RightArm
						{
							OFFSET -18.41580 0.00000 0.00000
							CHANNELS 3 Zrotation Xrotation Yrotation
							JOINT RightForeArm
							{
								OFFSET -29.11090 0.00000 0.00000
								CHANNELS 3 Zrotation Xrotation Yrotation
								JOINT RightHand
								{
									OFFSET -24.65040 0.00000 0.00000
									CHANNELS 3 Zrotation Xrotation Yrotation
									JOINT RightHandThumb1
									{
										OFFSET -5.35114 -0.85590 3.97906
										CHANNELS 3 Zrotation Xrotation Yrotation
										JOINT RightHandThumb2
										{
											OFFSET -4.52789 0.00000 0.00000
											CHANNELS 3 Zrotation Xrotation Yrotation
											JOINT RightHandThumb3
											{
												OFFSET -2.46976 0.00000 0.00000
												CHANNELS 3 Zrotation Xrotation Yrotation
												End site
												{
													OFFSET 0.00000 0.00000 0.00000
												}
											}
										}
									}
									JOINT RightHandIndex1
									{
										OFFSET -14.26970 0.00000 2.88139
										CHANNELS 3 Zrotation Xrotation Yrotation
										JOINT RightHandIndex2
										{
											OFFSET -5.48836 0.00000 0.00000
											CHANNELS 3 Zrotation Xrotation Yrotation
											JOINT RightHandIndex3
											{
												OFFSET -3.01859 0.00000 0.00000
												CHANNELS 3 Zrotation Xrotation Yrotation
												End site
												{
													OFFSET 0.00000 0.00000 0.00000
												}
											}
										}
									}
									JOINT RightHandMiddle1
									{
										OFFSET -14.26970 0.00000 -0.09147
										CHANNELS 3 Zrotation Xrotation Yrotation
										JOINT RightHandMiddle2
										{
											OFFSET -6.17441 0.00000 0.00000
											CHANNELS 3 Zrotation Xrotation Yrotation
											JOINT RightHandMiddle3
											{
												OFFSET -3.56743 0.00000 0.00000
												CHANNELS 3 Zrotation Xrotation Yrotation
												End site
												{
													OFFSET 0.00000 0.00000 0.00000
												}
											}
										}
									}
									JOINT RightHandRing1
									{
										OFFSET -12.69180 0.00000 -3.06433
										CHANNELS 3 Zrotation Xrotation Yrotation
										JOINT RightHandRing2
										{
											OFFSET -5.62556 0.00000 0.00000
											CHANNELS 3 Zrotation Xrotation Yrotation
											JOINT RightHandRing3
											{
												OFFSET -3.56744 0.00000 0.00000
												CHANNELS 3 Zrotation Xrotation Yrotation
												End site
												{
													OFFSET 0.00000 0.00000 0.00000
												}
											}
										}
									}
									JOINT RightHandPinky1
									{
										OFFSET -11.11390 0.00000 -6.03719
										CHANNELS 3 Zrotation Xrotation Yrotation
										JOINT RightHandPinky2
										{
											OFFSET -4.52789 0.00000 0.00000
											CHANNELS 3 Zrotation Xrotation Yrotation
											JOINT RightHandPinky3
											{
												OFFSET -2.46976 0.00000 0.00000
												CHANNELS 3 Zrotation Xrotation Yrotation
												End site
												{
													OFFSET 0.00000 0.00000 0.00000
												}
											}
										}
									}
								}
							}
						}
					}
					JOINT LeftShoulder
					{
						OFFSET 0.01000 7.91373 5.19711
						CHANNELS 3 Zrotation Xrotation Yrotation
						JOINT LeftArm
						{
							OFFSET 18.41580 0.00000 0.00000
							CHANNELS 3 Zrotation Xrotation Yrotation
							JOINT LeftForeArm
							{
								OFFSET 29.11090 0.00000 0.00000
								CHANNELS 3 Zrotation Xrotation Yrotation
								JOINT LeftHand
								{
									OFFSET 24.65040 0.00000 0.00000
									CHANNELS 3 Zrotation Xrotation Yrotation
									JOINT LeftHandThumb1
									{
										OFFSET 5.35114 -0.85590 3.97906
										CHANNELS 3 Zrotation Xrotation Yrotation
										JOINT LeftHandThumb2
										{
											OFFSET 4.52789 0.00000 0.00000
											CHANNELS 3 Zrotation Xrotation Yrotation
											JOINT LeftHandThumb3
											{
												OFFSET 2.46977 0.00000 0.00000
												CHANNELS 3 Zrotation Xrotation Yrotation
												End site
												{
													OFFSET 0.00000 0.00000 0.00000
												}
											}
										}
									}
									JOINT LeftHandIndex1
									{
										OFFSET 14.26970 0.00000 2.88139
										CHANNELS 3 Zrotation Xrotation Yrotation
										JOINT LeftHandIndex2
										{
											OFFSET 5.48836 0.00000 0.00000
											CHANNELS 3 Zrotation Xrotation Yrotation
											JOINT LeftHandIndex3
											{
												OFFSET 3.01859 0.00000 0.00000
												CHANNELS 3 Zrotation Xrotation Yrotation
												End site
												{
													OFFSET 0.00000 0.00000 0.00000
												}
											}
										}
									}
									JOINT LeftHandMiddle1
									{
										OFFSET 14.26970 0.00000 -0.09147
										CHANNELS 3 Zrotation Xrotation Yrotation
										JOINT LeftHandMiddle2
										{
											OFFSET 6.17440 0.00000 0.00000
											CHANNELS 3 Zrotation Xrotation Yrotation
											JOINT LeftHandMiddle3
											{
												OFFSET 3.56744 0.00000 0.00000
												CHANNELS 3 Zrotation Xrotation Yrotation
												End site
												{
													OFFSET 0.00000 0.00000 0.00000
												}
											}
										}
									}
									JOINT LeftHandRing1
									{
										OFFSET 12.69180 0.00000 -3.06433
										CHANNELS 3 Zrotation Xrotation Yrotation
										JOINT LeftHandRing2
										{
											OFFSET 5.62556 0.00000 0.00000
											CHANNELS 3 Zrotation Xrotation Yrotation
											JOINT LeftHandRing3
											{
												OFFSET 3.56744 0.00000 0.00000
												CHANNELS 3 Zrotation Xrotation Yrotation
												End site
												{
													OFFSET 0.00000 0.00000 0.00000
												}
											}
										}
									}
									JOINT LeftHandPinky1
									{
										OFFSET 11.11390 0.00000 -6.03719
										CHANNELS 3 Zrotation Xrotation Yrotation
										JOINT LeftHandPinky2
										{
											OFFSET 4.52789 0.00000 0.00000
											CHANNELS 3 Zrotation Xrotation Yrotation
											JOINT LeftHandPinky3
											{
												OFFSET 2.46976 0.00000 0.00000
												CHANNELS 3 Zrotation Xrotation Yrotation
												End site
												{
													OFFSET 0.00000 0.00000 0.00000
												}
											}
										}
									}
								}
							}
						}
					}
					JOINT pCube4
					{
						OFFSET 0.00000 10.91090 1.10792
						CHANNELS 3 Zrotation Xrotation Yrotation
						End site
						{
							OFFSET 0.00000 0.00000 0.00000
						}
					}
				}
			}
		}
	}
	JOINT RightUpLeg
	{
		OFFSET -9.98441 0.00000 0.00000
		CHANNELS 3 Zrotation Xrotation Yrotation
		JOINT RightLeg
		{
			OFFSET 0.00000 -42.11790 0.00000
			CHANNELS 3 Zrotation Xrotation Yrotation
			JOINT RightFoot
			{
				OFFSET 0.00000 -45.00020 -0.00001
				CHANNELS 3 Zrotation Xrotation Yrotation
				JOINT RightForeFoot
				{
					OFFSET 0.00000 -3.74820 0.00000
					CHANNELS 3 Zrotation Xrotation Yrotation
					JOINT RightToeBase
					{
						OFFSET 0.00000 0.06325 14.43120
						CHANNELS 3 Zrotation Xrotation Yrotation
						End site
						{
							OFFSET 0.00000 0.00000 0.00000
						}
					}
				}
			}
		}
	}
	JOINT LeftUpLeg
	{
		OFFSET 9.98441 0.00000 0.00000
		CHANNELS 3 Zrotation Xrotation Yrotation
		JOINT LeftLeg
		{
			OFFSET 0.00000 -42.11800 0.00000
			CHANNELS 3 Zrotation Xrotation Yrotation
			JOINT LeftFoot
			{
				OFFSET 0.00000 -45.00070 0.00000
				CHANNELS 3 Zrotation Xrotation Yrotation
				JOINT LeftForeFoot
				{
					OFFSET 0.00000 -3.74824 0.00000
					CHANNELS 3 Zrotation Xrotation Yrotation
					JOINT LeftToeBase
					{
						OFFSET 0.00000 0.06325 14.43110
						CHANNELS 3 Zrotation Xrotation Yrotation
						End site
						{
							OFFSET 0.00000 0.00000 0.00000
						}
					}
				}
			}
		}
	}
}
MOTION
Frames: 4
Frame Time: 0.050000
0.02813818934947017 -0.013533998433075654 -0.011671146715003375 0.0026050500716624844 0.01742821973941 0.004072532374702418 -3.3997573178366234 -0.673832221646304 -0.8207074216796029 -0.9381241387818583 3.594298987657023 0.33618366265528116 -1.1408046052703162 -2.1074820118352116 -1.52563830723849 -0.20411864577434435 0.22049511961058077 -0.8557119440419314 -0.3469582864115115 12.156950368757371 0.9945887655692386 0.20813126953141806 0.2617504742951658 1.3670056137168949 -0.041427875183635936 -14.299053934849967 0.11680164380130914 -3.4328326885673093 1.4063511132203015 -14.256939009366208 73.1183624185002 26.075143907776066 3.255681874685662 35.338841019924864 6.582990855799411 87.1914469035638 23.262590422153643 -0.3807728175286521 -3.7817265870503074 4.552013567733463 -0.09674320865464775 -1.6094771435846786 0.005690144112735656 0.016299976150385587 -56.19145299826775 0.008207756517611572 0.024078843181261966 -56.22886132206523 -38.7283261289594 -0.02430626383049137 0.041210467304599416 0.04681189731314808 0.011903324532951023 -0.021351028132456668 -0.04359299950094188 0.0030818933013891017 0.022980005559467373 -36.707088437760675 0.017157398409694227 0.029374447002821245 -0.007381538033345806 0.016905711875068227 0.04594485625396297 0.012361382885797212 0.0221025413394378 -0.01595738701863238 -19.733178335806073 -0.030436971395014036 -0.011362103279347956 -0.04346434941706126 0.003405596361727562 0.036160435059635246 0.04991358798704832 -0.01482334105138832 -0.0013639491444014029 24.040486945719156 0.03524362717258183 -0.022479382180723817 28.827105403250176 0.023370471081863475 -0.04636844114685704 28.824160867794113 0.004017451977737583 0.012702091928309973 6.122927569995761 1.4177385104536977 12.399338828507354 -73.5856990156426 25.05817961735199 -8.204563148165716 -92.60960920639616 9.439795854246027 -106.7200027651565 -20.273184151545095 -1.5697035426889638 0.803289666832 -0.5168368211512667 0.05071101203896136 -8.16801993974506 0.038015338620277735 0.03725235637832687 44.53095494860774 -0.03641913094610244 0.0003541398394938106 44.599239881610636 12.417934239523264 0.04169377264116551 0.016292188185350918 -0.04193483547637747 0.013951459014337258 0.0022091732472793906 0.009479679500498698 0.006769769352311737 0.011419512087460374 11.143228877788784 -0.027628219305302886 -0.03931051809883609 0.04586228461843363 -0.024528764452953405 0.033309284126230326 0.024836451414385268 -0.0022253650628807306 -0.04098930936485576 4.775809513289978 0.020799990608144345 0.020354424569560804 0.03374287229976714 -0.0028594480582520955 -0.024279764269875253 -0.02003459517114373 -0.00036348640491546823 0.04958702144377727 -5.638811744265826 0.00440102380009557 0.028123346038474335 -6.6948022793077735 0.02215069414537592 0.03439478097895584 -6.713837485378273 -0.043822389783166105 0.022588969217282456 0.016028271795263473 -0.008109401901397468 -0.0011954605663582428 8.023802095437812 3.4587767833451983 -19.218457725819405 -0.01630350701599844 10.424088767558253 0.01841779157955941 -5.580181893150424 -15.648729916410407 3.1776276971033477 0.021960986764153947 0.031770443914148044 -0.015621860851689588 0.01607201133076679 4.682493878623444 -0.031816346466659914 12.481090623154618 -8.269491191700592 6.915865798258352 0.012553226201902143 46.3963018373267 0.012665256618676258 -4.355719064347094 -14.750698934963888 -3.827075720643664 0.000887517643575072 0.0024453986439983027 -0.0022708934895211406 0.009996959376210268 -10.74966682983161 -0.020925604355484517 
-0.023741241225790726 0.04781320420581239 -0.04038740054198612 0.04029907791194739 -0.0427116317450046 0.01743901348402091 -3.3568207928172793 -0.6706581984299939 -0.8232385597078038 -0.9434210271263297 3.576573821899161 0.3230937345991465 -1.1953157261420404 -2.047303099908061 -1.4994425715926754 -0.22322383553829173 0.24225353301835156 -0.8495757442893572 -0.41398881379812563 12.249019137760738 1.1038252529445554 0.20327387707869563 0.36507946876773983 1.7378987322101849 -0.11444601420376821 -14.063890588396163 0.1989895860488111 -3.3609812844923512 1.4125925564021777 -14.267141795634156 72.70658157701612 25.585074623313503 3.7091090998396843 36.1538691993241 5.441148098759026 90.82898046262422 22.239153938956438 -0.376488441162698 -3.717280055771766 4.565831412157919 -0.10030893369401271 -1.5573401676295755 0.04145944530006313 -0.03160599899291874 -56.246997268606535 -0.029149382601742973 -0.019886963864055047 -56.210084292613956 -38.79849444543035 0.03360096236464947 -0.03225574862443815 -0.039276631319382825 -0.011098382076201846 0.017928242648497624 -0.008188824103365957 0.02455309052356142 -0.003466443487432096 -36.67186761396346 -0.0021386686502627285 -0.0303178891349076 0.006786533703472882 0.023681018058744768 0.010586294871911255 -0.02604750311268359 0.006804453652365451 -0.0290790826008511 -19.71205446259843 -0.017331106928924263 -0.019455426832667377 0.003920795705714297 0.034381660260772766 0.0016152326377658355 -0.00459661641250828 0.015364443191503945 -0.014411145610878034 24.034226560252183 0.03368841738865754 0.01365083015792039 28.892309391876367 -0.037394389362770994 0.04652756138570746 28.90330720070889 0.026655831335609306 -0.028890364912702075 6.02759114219479 1.413842657335535 12.350605937144397 -73.43471913639887 25.41769263254428 -8.023003064816093 -90.90064837474495 8.85817905149779 -105.60378201649281 -19.08244617456863 -0.747843306158862 0.19037567723673882 -0.44326077424174115 0.0932332303232367 -8.096765248547062 -0.016364292673871503 0.025817666249670333 44.553496435311835 0.012772740875023498 -0.04447052639035844 44.52526842009802 12.468930782404781 0.025336155290146083 0.023967823050358685 0.04764632198939325 -0.02608953879931048 -0.022409771981577866 0.00011884921345974485 0.03385585911539628 -0.014834545987613284 11.15515440299085 0.004541605207793099 0.016540563961539183 -0.015146374041220944 0.005439671301059252 -0.037018827865062914 0.015010989400766235 0.023807414029113082 0.012026122154519418 4.774674922904904 0.011315039161583272 -0.03295439696390486 -0.04194172912834562 -0.010499066101340528 0.036315406363494514 0.024560875274189008 -0.04597914479970353 -0.0011975568737494938 -5.603385544060227 0.01919727894277204 0.01074334048209904 -6.698348189452101 -0.04247437067352753 0.029498632913775483 -6.69129964731128 0.005658210213142061 -0.018944047533046286 0.02603513912518824 0.04062166414201475 -0.03589770945078086 8.018331090183644 3.464450250113757 -19.26308025421948 -0.04529896338225748 10.392283095638877 0.047138564415642625 -5.649753986506511 -15.664495642018862 3.1925034586754335 -0.012968256629644048 -0.035177767289692644 -0.017893487072137147 -0.012210279427076715 4.676016878297322 0.0048194179258260455 12.462483099372513 -8.250870079513366 6.906745444697128 -0.007176247631676775 46.38965902590608 0.012797730561120317 -4.360473132355747 -14.794559565298057 -3.87074220969739 0.010905020458778229 0.02091496701975935 -0.03663812601359162 -0.04236984965447909 -10.720496091924309 -0.035297490908562545 
-0.018472950914644008 -0.005106453945598961 0.0272994346865456 0.0016316680056171048 -0.022233635722159813 -0.005311329237366648 -3.3114022463544996 -0.6698883195084604 -0.8061939585877257 -0.8799101708072363 3.5268606197515147 0.35249392402665375 -1.1639588705387487 -2.069790443894878 -1.479259212018175 -0.19271425660166938 0.3102079562752664 -0.8799274927900298 -0.37588238103874283 12.379337644805204 1.2647219141005386 0.18146166418797344 0.4623805701549223 2.007723474800808 -0.20125915287409357 -13.921720379927523 0.20759046704992987 -3.331392272107045 1.43573999285192 -14.341345092984524 72.2807679620711 25.275065025164388 3.739257122184734 35.70103910107284 4.475360280231812 92.89945737096527 21.26986287010812 -0.31375331224763775 -3.713270169105297 4.536500942722186 -0.16004771706086382 -1.6400927495643283 -0.040982983414491615 -0.04139886056654512 -56.270002183660495 -0.029546379478670566 0.044924034955122066 -56.20921768489631 -38.76726622237186 0.004351669074662007 -0.024598859418862848 -0.02786733290010114 -0.025523744488646166 -0.009464420150537625 0.013937589190862645 -0.049385440124989924 -0.019693702951973244 -36.725240971777296 -0.020909535296304682 -0.003968131293553015 -0.007551646300945802 0.026488215272530556 0.02459165303275363 -0.022916058933838832 0.031242318347565592 -0.020832746774301563 -19.79578362531081 0.003198564253803295 -0.029507150481607552 -0.016089372278765855 0.029245296139549397 -0.02632245798814103 -0.039399310738651085 -0.02599197027157809 0.01860393660498049 24.076503111804737 0.02120281738646417 -0.014330741272509367 28.908865300972657 -0.004764768402573246 -0.01046478872590695 28.856361458465276 -0.009946914929162446 -0.037243946181392866 6.012548843484208 1.4183846714959272 12.481354009754034 -72.97734030525768 25.514790222040265 -7.923292890169021 -86.4038000805248 8.965668424760347 -103.00390747140116 -17.47164263872187 -0.13533167895396786 -0.14770740502992197 -0.45634897714540534 0.020092353966481416 -8.076557656461073 -0.013683573306378231 0.04727489606403893 44.55961529646269 -0.002894588740452113 0.027216603489103725 44.57295197045808 12.417042344387701 -0.007347962582193599 -0.024220586853273694 -0.009078318319473457 -0.03700416336116791 -0.00675257916988025 0.04056734699602525 0.041963168253356775 0.00888100933599408 11.127424806537835 -0.0049296670542644146 -0.04426164563989061 0.007488628896653721 -0.04457234281862129 -0.004179058319008724 0.0070690376290768134 0.016396502514372406 0.028019499353159796 4.764084282468733 0.013363766157980612 -0.02647961801387227 -0.014182514581898741 0.021240665431154434 0.00675881932460107 0.02906130387917466 -0.026977334632513644 0.020469677151311125 -5.579143058887617 -0.02683345672030758 -0.022225710608281067 -6.6742937567081055 0.006427119556243296 0.01390219030064267 -6.698617558508408 0.03440164222177769 -0.0005214039661521786 -0.014902693488775758 0.009298587334621475 -0.016316146273254523 8.045282436961907 3.4999576402194403 -19.217194592795018 0.03151029368199777 10.373560576392709 0.02345003971109022 -5.583932558281075 -15.697220732479424 3.2250469656394563 0.009934157752784308 -0.013797120242645965 -0.026004287375573663 -0.039613846898478765 4.699729186592318 0.028987856827652415 12.43011219114141 -8.276537502430568 6.898309402763211 0.018497174752595633 46.37239031336113 0.03227770625756289 -4.332689439356357 -14.74603272064327 -3.796044644195266 0.006066258106971753 0.0340057956870576 -0.003841193278642849 -0.024894051919387306 -10.729169563265591 0.031259865314082744 
0.002968151250188136 0.00301562562460452 0.0025317962318998945 -0.03462528296038348 -0.002641697585887139 -0.04888179617528709 -3.208987154753662 -0.6294856013953672 -0.8306211011559471 -0.9428392819230053 3.611545796542825 0.3284070074881507 -1.1973873036466514 -2.0265874200994416 -1.447869009202956 -0.1661113503827234 0.3736207785083734 -0.888757715570858 -0.4018940635549849 12.438233330180234 1.36112725324861 0.15796865282698458 0.46906628313386445 2.064933373960586 -0.22638099905107256 -13.832766533132018 0.2171021439123335 -3.4251398780406377 1.452212574603084 -14.543733336753766 71.93905213012043 25.63882769934865 3.446211281315847 33.71841056512802 4.146481404645741 92.91700548247478 20.52353188591527 -0.32102145550233024 -3.8790670441090715 4.5058369955620075 -0.14222349316508115 -1.6301862254943622 0.01658458495040579 0.02504980387663598 -56.22759664239642 0.01306719659649383 -0.019366646433086693 -56.24403605407169 -38.72120187684309 -0.027928899801479678 0.003883590976808059 -0.028031443602541183 0.013444541564764914 -0.02097273524084848 -0.003285950342666593 -0.0016500960318723717 0.012233180498284417 -36.70895858022108 0.04613694485929915 0.018753491200931477 0.049463748223422754 0.023403343700316045 -0.021450075443488113 -0.039325080756127666 0.01573393297723075 -0.011276427007342734 -19.733533536766373 0.035332604195545896 0.036280729946447744 0.013993134824412938 -0.04954431393713145 -0.03096389583133757 0.03195073834318271 -0.03869415332957405 -0.018266565129715 24.05324857899749 0.02057422465155121 -0.030088969992315 28.85754451031243 0.013533967734879663 0.010561038270251689 28.857278130496745 -0.026767613641566858 0.010754749342852804 5.976799882720222 1.370346894931578 12.719844088747536 -72.50582584003843 25.721683682001476 -7.6586055209472 -77.6767381187507 9.886693394591227 -97.53123178665592 -15.583676544089057 0.0880029268900676 -0.18051439788942847 -0.47897895103320187 0.101678977944436 -8.167061348254736 0.0059977613657522955 0.03207535462777122 44.53576614519432 -0.024005291088573175 -0.0329142222628249 44.6148486061906 12.43879553683429 -0.001585300434619895 0.04377245174472752 0.03231319135024173 -0.02147078922234724 -0.029182680994881836 -0.026540633671797483 0.025057472743511524 0.019503268426344707 11.117112716154157 -0.0385298087131387 0.03884177776741 0.04309638921926502 0.030858044550285926 0.012522504367886123 0.021985774115941287 -0.0027074380162744687 0.02736348168480839 4.7956678416554475 0.01634020839180204 0.005878033819956373 0.03987122781100153 -0.012737883706123096 0.0128998247324452 -0.04475515790555351 0.017345275246547883 0.017376773924061086 -5.581361637410465 -0.014435798864531203 0.024926667194803465 -6.750866437240683 -0.0017382604876298364 -0.023723573928595715 -6.761675354564033 0.01319411616079243 -0.011962595328458926 -0.013022127208423717 0.008907368149108653 -0.04021652634358955 8.03137868906555 3.478941232390892 -19.179265244194138 0.023919348098747278 10.42425679742649 -0.034229271861011545 -5.583936423144682 -15.617804162590161 3.167485914067368 0.02484954815437438 -0.03443481141656793 0.006441909241847658 -0.019973649781243767 4.703777119803383 -0.043774697673392156 12.492417618083705 -8.251525269515708 6.874487734244504 0.013768495188640048 46.402403075174085 0.027529706297301115 -4.295147725887216 -14.782021891062634 -3.86818563915265 0.022489024121221158 -0.019362310007299117 0.022258051482108 -0.005042408892809772 -10.709810326748617 0.04814771848675817 
